<svg viewBox="0 0 2400 2400" xmlns="http://www.w3.org/2000/svg" xml:space="preserve" style="fill-rule:evenodd;clip-rule:evenodd;stroke-linejoin:round;stroke-miterlimit:2"><path d="M1390.4 1935.89h17.927l292.62-146.328 4.871-6.884V614.688l-4.871-6.92-292.62-146.205h-18.147l.22 1474.32" style="fill:#5294cf;fill-rule:nonzero"/><path d="M1009.6 1935.89h-18.178l-292.37-146.328-5.933-10.205-3.01-1158.72 8.943-12.868 292.37-146.205h18.403l-.225 1474.32" style="fill:#1f5b98;fill-rule:nonzero"/><path style="fill:#2d72b8;fill-rule:nonzero" d="M991.935 461.563h416.111v1474.32H991.935z"/><path d="m1854.12 1165.6-9.888-2.193-141.187-13.164-2.096 1.043-292.881-11.713h-416.13l-292.887 11.713v-223.34l-.306.163.306-.654 292.887-67.865h416.13l292.881 67.865 107.669 57.23v-36.794l45.502-4.977-4.711-9.189-144.07-103.018-4.39 1.426-292.881-90.754h-416.13l-292.887 90.754V607.765L545.886 787.203v156.712l1.185-.858 44.317 4.834v37.55l-45.502 24.351v155.93l1.185-.122 44.317.654v65.447l-38.235.573-7.267-.695v155.991l45.502 24.468v37.985l-43.596 4.814-1.906-1.431v156.687l153.165 179.463v-224.347l292.887 90.754h416.13l293.745-91.02 3.904 1.712 142.174-101.5 6.229-10.114-45.502-5.018V1412.8l-5.964-2.382-97.315 52.457-3.526 7.359-293.745 67.471v.082h-416.13v-.082l-292.887-67.757V1245.79l292.887 11.672v.286h416.13l292.881-11.958 6.669 3.066 136.849-11.784 9.653-4.717-45.502-.654v-65.447l45.502-.654" style="fill:#1a476f;fill-rule:nonzero"/><path d="M1700.95 1565.21v224.347l153.171-179.463v-155.665l-152.286 110.515-.885.266m0-94.77.885-.205 152.286-81.907v-156.626l-153.171 14.089v224.649m.885-542.78-.885-.204v223.831l153.171 14.314v-156.549l-152.286-81.392m0-94.647 152.286 109.902v-155.67L1700.95 607.766v224.368l.885.306v.573" style="fill:#2d72b8;fill-rule:nonzero"/></svg>