<svg viewBox="0 0 2400 2400" xmlns="http://www.w3.org/2000/svg" xml:space="preserve" style="fill-rule:evenodd;clip-rule:evenodd;stroke-linejoin:round;stroke-miterlimit:2"><path d="m651.29 682.268-105.392 52.706v925.044l105.392 52.399.634-.761V682.996l-.634-.726" style="fill:#8c3123;fill-rule:nonzero"/><path d="m1215.33 1578.15-564.041 134.264V682.264l564.041 131.337v764.548" style="fill:#e05243;fill-rule:nonzero"/><path d="m960.732 1367.95 239.248 30.456 1.502-3.464 1.344-392.308-2.846-3.066-239.248 30.017v338.365" style="fill:#8c3123;fill-rule:nonzero"/><path d="m1199.98 1579.66 548.684 133.043.863-1.374-.015-1028.14-.869-.92-548.663 132.844v764.548" style="fill:#8c3123;fill-rule:nonzero"/><path d="m1439.29 1367.95-239.314 30.456V999.568l239.314 30.017v338.365" style="fill:#e05243;fill-rule:nonzero"/><path d="m1439.29 865.953-239.314 43.616-239.248-43.616 238.946-62.63 239.616 62.63" style="fill:#5e1f18;fill-rule:nonzero"/><path d="m1439.29 1531.14-239.314-43.901-239.248 43.901 238.956 66.703 239.606-66.703" style="fill:#f2b0a9;fill-rule:nonzero"/><path d="m960.732 865.953 239.248-59.206 1.936-.598V409.523l-1.936-1.599-239.248 119.644v338.385" style="fill:#8c3123;fill-rule:nonzero"/><path d="m1439.29 865.953-239.314-59.206V407.924l239.314 119.644v338.385" style="fill:#e05243;fill-rule:nonzero"/><path d="m1199.98 1989.15-239.274-119.603v-338.38l239.274 59.186 3.52 4.001-.955 387.893-2.565 6.903" style="fill:#8c3123;fill-rule:nonzero"/><path d="m1199.98 1989.15 239.294-119.603v-338.38l-239.294 59.186v398.797m548.684-1306.88 105.438 52.706v925.044l-105.438 52.685V682.275" style="fill:#e05243;fill-rule:nonzero"/></svg>