<svg viewBox="0 0 36 42" xmlns="http://www.w3.org/2000/svg" xml:space="preserve" style="fill-rule:evenodd;clip-rule:evenodd;stroke-linejoin:round;stroke-miterlimit:2"><path d="m18.17 10.055 15.155-3.08.028 27.231L18.17 31.29V10.055z" style="fill:#8c3123"/><path d="m33.325 6.975 2.344 1.418.028 24.805-2.317 1.035-.055-27.258z" style="fill:#e05243"/><path d="M.106 8.773 2.928 6.91v27.577L0 32.997.106 8.773z" style="fill:#8c3123"/><path d="m2.928 6.91 15.214 3.091.05 21.336-15.287 3.06.023-27.487" style="fill:#e05243"/><path d="m12.185 30.194 5.996 1.502 6.759-1.509-6.75-1.253-6.005 1.26z" style="fill:#f2b0a9"/><path d="m12.182 30.195 6.001 1.505-.006 9.756-5.984-2.246-.011-9.015z" style="fill:#8c3123"/><path d="m24.93 30.185-.036 9.009-6.715 2.266.003-9.76 6.748-1.515zM18.168 15.921l.022 9.878 5.997-.807v-9.049l-6.019-.022z" style="fill:#e05243"/><path d="m18.19 25.799-6.76-.85v-8.963l6.716-.109.044 9.922z" style="fill:#8c3123"/><path d="m18.149 9.909 6.032 1.523-5.991.808-6.011-.84 5.97-1.491z" style="fill:#5e1f18"/><path d="M12.186 2.39 18.117 0l.018 9.909-5.949 1.5V2.39z" style="fill:#8c3123"/><path d="m18.117 0 6.071 2.442v8.985l-6.036-1.501L18.117 0z" style="fill:#e05243"/></svg>