<svg viewBox="0 0 2400 2400" xmlns="http://www.w3.org/2000/svg" xml:space="preserve" style="fill-rule:evenodd;clip-rule:evenodd;stroke-linejoin:round;stroke-miterlimit:2"><path d="M558.225 580.019v1243.76c0 129.147 287.344 233.841 641.775 233.841V580.02H558.225z" style="fill:#0072c6"/><path d="M1191.21 2057.6h8.792c354.431 0 641.775-104.652 641.775-233.798V580.042H1191.21v1477.58-.021z" style="fill:#0072c6"/><path d="M1191.21 2057.6h8.792c354.431 0 641.775-104.652 641.775-233.798V580.042H1191.21v1477.58-.021z" style="fill:#fff;fill-opacity:.15"/><path d="M1841.78 580.019c0 129.125-287.344 233.799-641.775 233.799S558.23 709.144 558.23 580.019s287.344-233.798 641.775-233.798 641.775 104.673 641.775 233.798" style="fill:#fff"/><path d="M1710.55 566.542c0 85.249-228.579 154.261-510.553 154.261s-510.596-69.012-510.596-154.261 228.622-154.261 510.596-154.261 510.553 69.055 510.553 154.261" style="fill:#7fba00"/><path d="M1603.61 660.84c66.83-26.078 107.005-58.722 107.005-94.213-.021-85.249-228.6-154.304-510.617-154.304-282.017 0-510.553 69.055-510.553 154.304 0 35.469 40.154 68.135 107.005 94.213 93.336-36.453 239.211-59.963 403.569-59.963 164.359 0 310.191 23.51 403.591 59.963" style="fill:#b8d432"/><path d="M996.172 1443.38c0 38.656-13.926 68.584-41.822 89.784-27.896 21.2-66.359 31.832-115.498 31.832-41.801 0-76.735-7.573-104.802-22.74v-90.939c32.389 27.66 68.071 41.501 107.048 41.501 18.826 0 33.394-3.786 43.662-11.381 10.269-7.594 15.403-17.606 15.403-30.142 0-12.3-4.942-22.997-14.825-32.089-9.883-9.091-29.992-20.836-60.305-35.233-61.782-29.137-92.651-68.969-92.651-119.306 0-36.538 13.456-65.846 40.41-87.923 26.955-22.077 62.701-33.094 107.305-33.094 39.554 0 72.285 5.241 98.32 15.638v84.949c-27.297-18.953-58.38-28.409-93.207-28.409-17.499 0-31.34 3.722-41.502 11.188a35.329 35.329 0 0 0-15.231 29.971c0 12.879 4.086 23.446 12.3 31.683 8.215 8.236 24.987 18.418 50.401 30.548 37.865 18.012 64.819 36.26 80.949 54.829 16.13 18.569 24.067 41.715 24.067 69.333h-.022zm435.765-92.03c0 47.919-10.846 89.527-32.495 124.718-21.649 35.19-52.155 59.92-91.496 74.146l117.467 109.38h-118.6l-83.88-94.619c-35.961-1.305-68.413-10.889-97.315-28.687-28.901-17.799-51.235-42.186-66.937-73.163-15.702-30.976-23.596-65.504-23.596-103.561 0-42.229 8.515-79.879 25.543-112.931 17.028-33.051 40.988-58.487 71.879-76.285 30.89-17.799 66.252-26.698 106.213-26.698 37.245 0 70.638 8.621 100.117 25.863 29.479 17.243 52.326 41.737 68.627 73.569 16.301 31.832 24.473 67.921 24.473 108.246v.022zm-96.009 5.134c0-41.309-8.942-73.911-26.848-97.892-17.905-23.981-42.357-35.961-73.44-35.961-31.64 0-56.947 12.023-75.986 36.046-19.04 24.024-28.516 56.07-28.516 96.031 0 39.79 9.305 71.537 27.938 95.304 18.633 23.767 43.384 35.64 74.275 35.64 31.468 0 56.39-11.51 74.852-34.507 18.462-22.996 27.725-54.55 27.725-94.683v.022zm404.168 201.389h-241.2v-407.378h91.217v332.953h149.962l.021 74.425z" style="fill:#fff"/><g><path d="M547.529 569.323v1243.76c0 129.146 287.344 233.841 641.775 233.841v-1477.6H547.529z" style="fill:#0072c6"/><path d="M1180.51 2046.9h8.793c354.43 0 641.774-104.652 641.774-233.799V569.341H1180.51v1477.58-.021z" style="fill:#0072c6"/><path d="M1180.51 2046.9h8.793c354.43 0 641.774-104.652 641.774-233.799V569.341H1180.51v1477.58-.021z" style="fill:#fff;fill-opacity:.15"/><path d="M1831.08 569.323c0 129.125-287.344 233.798-641.774 233.798-354.431 0-641.775-104.673-641.775-233.798s287.344-233.799 641.775-233.799c354.43 0 641.774 104.674 641.774 233.799" style="fill:#fff"/><path d="M1699.86 555.846c0 85.249-228.579 154.261-510.553 154.261-281.975 0-510.596-69.012-510.596-154.261s228.621-154.262 510.596-154.262c281.974 0 510.553 69.055 510.553 154.262" style="fill:#7fba00"/><path d="M1592.92 650.144c66.83-26.078 107.005-58.723 107.005-94.213-.021-85.249-228.6-154.304-510.617-154.304-282.017 0-510.553 69.055-510.553 154.304 0 35.469 40.153 68.135 107.005 94.213 93.335-36.453 239.211-59.963 403.569-59.963 164.359 0 310.191 23.51 403.591 59.963" style="fill:#b8d432"/><path d="M985.476 1432.68c0 38.656-13.926 68.584-41.822 89.784-27.896 21.2-66.36 31.832-115.498 31.832-41.801 0-76.735-7.573-104.802-22.74v-90.94c32.388 27.661 68.071 41.502 107.048 41.502 18.825 0 33.394-3.787 43.662-11.381s15.403-17.606 15.403-30.142c0-12.301-4.942-22.997-14.825-32.089-9.884-9.092-29.993-20.836-60.306-35.233-61.781-29.137-92.651-68.97-92.651-119.306 0-36.538 13.456-65.846 40.411-87.923 26.954-22.077 62.701-33.094 107.305-33.094 39.554 0 72.285 5.241 98.319 15.638v84.949c-27.296-18.954-58.38-28.409-93.207-28.409-17.499 0-31.34 3.722-41.501 11.188a35.33 35.33 0 0 0-15.232 29.971c0 12.878 4.086 23.446 12.301 31.682 8.215 8.236 24.987 18.419 50.401 30.549 37.865 18.012 64.819 36.26 80.949 54.829 16.13 18.568 24.067 41.715 24.067 69.333h-.022zm435.765-92.031c0 47.919-10.846 89.528-32.495 124.718-21.649 35.191-52.155 59.921-91.496 74.147l117.466 109.38h-118.6l-83.879-94.619c-35.961-1.305-68.414-10.889-97.315-28.688-28.901-17.798-51.235-42.186-66.937-73.162-15.702-30.976-23.596-65.504-23.596-103.561 0-42.229 8.514-79.88 25.543-112.931 17.028-33.051 40.988-58.487 71.878-76.286 30.891-17.798 66.253-26.697 106.214-26.697 37.244 0 70.638 8.621 100.117 25.863 29.479 17.242 52.326 41.737 68.627 73.569 16.301 31.832 24.473 67.921 24.473 108.246v.021zm-96.009 5.134c0-41.308-8.942-73.911-26.848-97.892-17.905-23.981-42.357-35.96-73.44-35.96-31.64 0-56.947 12.022-75.986 36.046-19.04 24.024-28.517 56.07-28.517 96.031 0 39.79 9.306 71.536 27.939 95.303 18.633 23.767 43.384 35.64 74.275 35.64 31.468 0 56.39-11.509 74.852-34.506 18.462-22.997 27.725-54.551 27.725-94.683v.021zm404.168 201.389h-241.2v-407.377h91.217v332.953h149.961l.022 74.424z" style="fill:#fff"/></g></svg>