<svg viewBox="0 0 2400 2400" xmlns="http://www.w3.org/2000/svg" xml:space="preserve" style="fill-rule:evenodd;clip-rule:evenodd;stroke-linejoin:round;stroke-miterlimit:2"><clipPath id="a"><path d="M445.249 589.859h1509.5v1220.28h-1509.5z"/></clipPath><g clip-path="url(#a)"><path d="m1468.59 978.416-166.684 54.428-145.013 64.002-40.57 10.71c-10.332 9.828-21.166 19.782-32.883 29.861-12.851 11.087-24.82 21.167-34.018 28.473-10.205 8.064-25.324 23.182-33.008 32.756-11.466 14.362-20.537 29.607-24.443 41.325-6.93 21.167-3.527 42.585 9.828 62.367 17.134 25.196 51.278 50.897 91.089 68.41 20.286 8.947 54.429 20.411 80.13 26.836 42.709 10.836 125.359 22.553 170.841 24.318 9.195.378 21.544.378 22.046 0 1.009-.632 8.065-14.112 16.255-30.867 27.97-57.075 48.128-110.621 59.088-156.354 6.551-27.717 11.716-64.632 15.117-108.349.884-12.222 1.26-53.168.504-67.028-1.134-22.678-3.15-41.071-6.298-59.088-.504-2.646-.632-5.041-.378-5.166.502-.378 2.014-.881 22.55-6.805l-4.155-9.825v-.003h.002v-.001zm-38.049 22.301c1.512 0 5.542 38.678 6.55 63.122.253 5.165.125 8.567-.126 8.567-1.007 0-21.292-11.968-35.778-21.039-12.6-7.938-36.537-23.813-40.317-26.837-1.262-.881-1.137-1.007 9.196-4.536 17.511-5.922 59.09-19.277 60.475-19.277zm-84.917 27.971c1.135 0 4.03 1.636 10.96 5.921 25.954 16.252 61.232 35.907 76.35 42.46 4.661 2.015 5.164 1.258-5.543 8.567-22.931 15.622-51.532 30.992-86.557 46.489-6.172 2.772-11.337 4.913-11.463 4.913-.251 0 .503-3.148 1.509-6.928 8.442-31.374 13.231-63.123 13.484-88.573.125-12.599.125-12.599 1.26-12.975-.253.126-.128.126 0 .126zm-17.512 6.676c.754.755.251 28.978-.758 36.663-2.267 18.395-5.795 35.529-11.588 54.807-1.387 4.658-2.649 8.567-2.898 8.818-.506.629-17.767-16.253-23.436-22.805-9.828-11.339-17.512-22.678-23.181-33.765-2.898-5.67-7.433-16.755-7.056-17.134 2.016-1.386 68.413-27.087 68.917-26.584zm-82.399 32.379c.126 0 .251 0 .379.126.251.252 1.135 2.268 1.891 4.535 4.03 10.962 13.1 27.088 20.913 37.42 8.568 11.34 19.782 23.433 29.103 31.371 3.025 2.519 5.795 4.913 6.172 5.291.757.757 1.009.63-19.528 8.442-23.809 9.071-49.765 18.142-79.499 27.716-7.103 2.29-14.199 4.6-21.289 6.93-1.136.379-.757-.252 2.518-5.416 14.741-23.057 37.166-68.287 49.766-100.288 2.142-5.544 4.283-11.087 4.662-12.347.505-1.765 1.133-2.394 2.77-3.277.882-.249 1.765-.503 2.142-.503zm-25.195 10.457c.377.254-6.049 13.733-12.348 26.08-12.222 23.812-25.576 47.248-43.467 75.72-3.023 4.913-5.92 9.45-6.299 9.954-.629.882-.882.629-2.898-3.276-4.283-8.441-7.812-19.277-9.702-29.231-1.89-9.828-1.511-26.961.631-37.544 1.636-7.81 1.512-7.684 5.291-9.575 16.127-8.189 68.288-32.631 68.792-32.128zm217.33 8.821v5.291c0 28.096-3.023 66.648-7.434 94.745-.756 4.913-1.388 8.943-1.512 9.071 0 0-3.653-1.007-7.937-2.269-18.898-5.922-39.434-14.615-57.956-24.818-12.222-6.678-29.985-17.641-29.48-18.145.123-.125 5.416-2.897 11.588-6.173 24.698-12.85 48.381-26.709 68.918-40.442 7.686-5.166 19.275-13.48 21.797-15.748l2.016-1.512zm-312.454 37.29c.504 0 .378 1.008-.378 5.544-.505 3.277-1.134 9.324-1.384 13.48-1.011 18.395 2.015 32.003 11.086 50.649 2.52 5.166 4.537 9.449 4.409 9.574-.882.757-84.285 25.2-110.493 32.381-7.811 2.141-14.613 4.031-15.12 4.156-.88.253-1.006.127-.629-2.017 2.898-18.518 17.009-42.709 36.663-63.12 13.103-13.606 23.561-21.543 41.451-31.75 12.851-7.305 32.631-18.265 34.143-18.771.001-.126.126-.126.252-.126zm196.544 35.152c.125-.126 3.149 1.513 6.802 3.654 26.962 15.623 64.507 30.112 96.506 37.545l2.9.631-4.033 2.265c-16.755 9.324-71.813 32.253-128.129 53.295-8.19 3.022-16.253 6.047-17.767 6.677-1.512.629-2.898 1.008-2.898.882 0-.128 2.27-4.537 5.165-9.953 15.749-29.482 31.625-65.388 39.688-90.335 1.01-2.393 1.638-4.534 1.766-4.661zm-20.032 6.552c.127.128-.882 2.772-2.142 5.795-10.961 26.584-25.326 55.563-43.719 88.068-4.661 8.316-8.567 14.994-8.695 14.994-.124 0-3.905-2.27-8.44-5.041-26.711-16.379-50.396-36.537-65.892-56.066l-2.268-2.771 11.464-3.15c41.073-11.212 75.97-23.307 110.619-38.173 4.915-2.017 8.947-3.656 9.073-3.656zm124.477 43.466s.126.126 0 0c.126 2.898-6.3 28.853-11.592 47.623-4.409 15.749-8.191 28.097-15.119 49.891-3.023 9.578-5.667 17.513-5.795 17.513-.125 0-.881-.125-1.637-.376-37.418-6.806-70.932-16.254-102.429-28.852-8.821-3.529-21.419-9.199-22.175-9.828-.251-.255 7.309-3.78 16.884-7.938 57.325-25.072 116.791-53.546 137.201-65.765 2.393-1.512 4.283-2.268 4.662-2.268zm-287.381 9.828c.252.251-15.749 23.308-38.176 54.679-7.811 10.961-16.882 23.812-20.283 28.599-3.402 4.788-8.567 12.348-11.465 16.883l-5.294 8.19-5.67-4.787c-6.678-5.545-18.267-17.388-23.433-23.939-10.836-13.48-18.141-27.717-21.039-40.692-1.387-6.049-1.387-9.074-.128-9.45 1.889-.504 35.529-8.442 67.028-15.751 17.513-4.03 37.795-8.817 45.103-10.581 7.308-1.767 13.231-3.151 13.357-3.151zm16.126 6.174 4.03 4.535c18.145 20.284 36.665 35.28 59.091 48.38 4.032 2.269 7.055 4.283 6.802 4.412-.88.629-77.861 27.966-113.516 40.314-20.031 7.054-36.537 12.724-36.661 12.724-.126 0-1.26-.755-2.522-1.638l-2.267-1.638 3.654-5.29c11.842-17.135 26.711-35.907 59.09-74.964l22.299-26.835zm100.541 71.938c.123-.125 5.667 1.89 12.47 4.412 16.381 6.173 29.355 10.078 46.743 14.488 21.419 5.418 52.412 10.71 70.681 12.221 2.772.251 4.284.504 3.78.882-.884.505-19.402 6.678-33.01 10.962-21.671 6.802-87.815 26.33-141.738 41.828-9.953 2.897-18.521 5.291-19.025 5.416-1.258.254-5.417-.882-5.417-1.386 0-.25 3.023-4.156 6.678-8.44 18.141-21.671 36.159-45.86 51.152-68.79 4.156-6.302 7.686-11.467 7.686-11.593zm-22.177.632c.126.125-8.818 14.487-24.439 39.181-6.679 10.457-14.113 22.3-16.759 26.458-2.52 4.031-6.299 10.332-8.44 13.859l-3.655 6.426-1.889-.504c-4.537-1.26-36.411-12.475-44.853-15.876-10.458-4.158-21.293-9.196-29.357-13.48-10.077-5.418-22.676-13.482-21.669-13.732.252-.126 17.513-4.789 38.3-10.458 55.184-14.994 85.799-23.686 105.833-29.985 3.654-1.134 6.803-2.017 6.928-1.889zm156.857 36.787h.126c.504 1.261-19.905 57.956-27.341 75.845-1.636 4.032-2.264 5.042-3.147 4.913-2.142-.124-31.749-4.282-49.767-6.928-31.37-4.787-84.035-13.986-97.262-17.008l-3.024-.63 18.77-4.286c40.318-9.071 59.72-13.984 79.373-20.031 24.821-7.559 49.39-17.009 74.209-28.599 3.905-1.765 7.182-3.15 8.063-3.276z" style="fill:url(#b);fill-rule:nonzero"/><path d="M1296.74 589.865c-2.772-.376-47.5 15.75-76.35 27.466-38.932 15.876-69.168 30.996-87.815 44.096-6.928 4.915-15.623 13.608-17.007 17.009-.504 1.26-.757 2.772-.757 4.283l16.883 16.001 40.19 12.851 95.626 17.135 109.358 18.773 1.135-9.449c-.378 0-.631-.126-1.006-.126l-14.366-2.269-2.896-5.165c-14.867-26.206-31.246-58.712-40.82-80.634-7.433-17.009-14.489-36.661-18.395-50.773-2.143-8.567-2.394-9.071-3.777-9.196v-.003h-.003v.001zm-2.019 6.427h.13c.124.124.628 3.654 1.133 7.81 2.14 17.641 6.048 34.647 12.221 53.042 4.66 13.859 4.66 13.104-.756 11.465-12.851-3.527-70.428-13.48-112.13-19.275-6.678-.883-12.348-1.764-12.348-1.89-.503-.504 30.111-16.506 43.592-22.803 17.261-7.94 64.632-27.72 68.158-28.349zm-121.453 56.443 4.916 1.636c26.708 9.072 93.859 21.924 130.902 24.947 4.156.378 7.685.757 7.809.757.126.126-3.4 2.016-7.937 4.157-17.888 8.945-37.543 19.906-51.151 28.348-4.03 2.519-7.685 4.536-8.188 4.536-.504 0-3.149-.504-5.921-.883l-5.039-.757-12.598-12.347c-22.174-21.543-39.561-38.173-46.239-44.474l-6.554-5.92zm-5.037 3.904 17.764 22.175c9.7 12.221 19.527 24.19 21.671 26.834 2.14 2.648 3.905 4.791 3.779 4.916-.504.378-25.7-4.537-39.057-7.559-13.733-3.151-19.402-4.663-27.843-7.307l-6.93-2.269v-1.765c.126-8.442 10.836-21.04 28.978-33.889l1.638-1.136zm150.934 30.238c.505 0 1.133 1.134 2.645 4.536 4.283 9.448 17.641 34.899 20.913 39.812 1.011 1.64 2.772 1.765-14.99-1.133-42.709-6.931-56.444-9.196-56.444-9.448 0-.126 1.26-1.008 2.898-1.891 13.23-7.306 26.584-16.63 38.427-26.583 2.898-2.395 5.544-4.662 6.047-5.041.125-.252.379-.377.504-.252z" style="fill:url(#c);fill-rule:nonzero"/><path d="M1116.44 676.672s-2.77 4.411-.125 10.963c1.64 4.03 6.426 8.943 11.843 13.984 0 0 56.065 54.678 62.869 62.491 30.992 35.78 44.473 71.057 45.734 119.69.755 31.245-5.168 58.71-19.907 90.586-26.206 57.2-81.516 120.321-166.811 190.371l12.475-4.158c8.063-6.049 19.025-12.472 44.726-26.583 59.34-32.508 126.114-62.367 208.008-93.108 117.923-44.349 311.823-96.258 422.187-113.138l11.467-1.765-1.765-2.772c-10.077-15.624-17.009-25.324-25.325-35.655-24.188-29.985-53.542-54.3-89.451-74.459-49.387-27.591-113.266-49.135-194.149-65.135-15.244-3.026-48.758-8.82-75.971-12.978-57.704-8.943-94.997-15.118-136.068-22.173-14.74-2.521-36.79-6.3-51.405-9.449-7.559-1.639-22.046-5.04-33.385-8.946-9.071-3.529-22.175-7.057-24.947-17.766zm32.507 31.498c.124-.124 2.14.63 4.787 1.512 4.788 1.636 10.961 3.527 18.27 5.544a926.633 926.633 0 0 0 16.63 4.409c7.559 1.889 13.858 3.653 13.983 3.653.884.883 13.609 41.574 17.893 57.198 1.635 5.923 2.898 10.961 2.772 10.961-.13.128-1.514-2.016-3.151-4.913-14.741-25.954-38.049-52.286-65.011-73.453-3.526-2.517-6.173-4.785-6.173-4.911zm61.987 17.135c.63 0 3.402.378 6.802 1.133 21.418 4.788 59.846 12.095 84.413 16.253 4.158.63 7.434 1.387 7.434 1.638 0 .253-1.513 1.133-3.404 2.142-4.155 2.141-20.913 12.093-26.455 15.874-13.986 9.323-26.584 19.402-35.656 28.473-3.653 3.654-6.804 6.678-6.804 6.678s-.754-2.141-1.386-4.789c-4.533-17.513-13.984-43.467-22.551-61.734-1.387-2.897-2.521-5.543-2.521-5.794 0 .251 0 .126.128.126zm109.105 20.788c.756.251 2.016 4.535 4.536 13.984 4.662 18.269 6.804 38.679 6.048 57.704-.253 5.291-.504 10.204-.757 10.836l-.377 1.258-6.552-2.141c-13.481-4.284-35.402-10.71-54.173-16.001-10.711-2.898-19.402-5.544-19.402-5.795 0-.757 15.623-16.379 22.299-22.3 12.723-11.215 47.244-37.924 48.378-37.545zm8.694 1.258c.379-.375 52.16 8.568 75.72 13.104 17.514 3.401 42.963 8.693 44.474 9.324.756.251-1.891 1.763-10.333 5.542-33.26 14.994-57.955 28.473-82.52 44.853-6.426 4.284-11.844 7.811-11.97 7.811-.125 0-.251-3.653-.251-8.063 0-23.937-4.788-48.127-13.609-68.537-.881-2.016-1.637-3.906-1.511-4.034zm133.926 26.46c.379.377-1.26 10.583-2.772 16.63-4.535 18.772-16.756 46.618-31.747 72.822-2.648 4.662-5.041 8.442-5.295 8.567-.249.126-3.651-1.765-7.558-4.032-14.614-8.568-31.244-16.631-49.388-24.191-5.037-2.141-9.448-3.906-9.574-4.156-.884-.757 39.686-27.592 61.104-40.443 17.009-10.331 44.726-25.702 45.23-25.197zm9.574 1.511c1.135 0 24.065 6.3 36.033 9.828 29.608 8.82 63.624 21.292 85.799 31.37l9.196 4.16-6.424 1.51c-54.174 12.472-100.539 26.837-145.266 44.979-3.653 1.512-6.93 2.772-7.179 2.772-.253 0 1.007-2.898 2.645-6.426 13.481-28.599 22.174-58.459 24.314-83.91.128-2.395.504-4.283.882-4.283zm-228.29 52.412c.377-.379 17.89 3.78 27.339 6.423 14.363 4.034 44.851 14.237 44.851 14.994 0 .126-3.401 3.024-7.431 6.553-16.504 13.733-32.38 28.219-51.406 46.614-5.67 5.42-10.456 9.829-10.707 9.829-.253 0-.377-.758-.253-1.765 2.897-21.167 2.269-48.38-1.763-75.971-.379-3.529-.756-6.551-.63-6.677zm368.014.379c.249.25-8.064 13.353-13.355 20.786-7.558 10.834-18.649 25.2-43.721 56.697-13.226 16.629-28.095 35.403-33.006 41.702-5.042 6.299-9.198 11.589-9.326 11.589-.125 0-1.761-2.266-3.526-5.038-14.111-21.167-30.995-39.687-51.027-56.317-3.779-3.151-7.935-6.553-9.321-7.561-1.387-1.007-2.521-2.015-2.521-2.141 0-.377 21.416-9.576 37.671-16.126 28.474-11.592 67.275-25.45 96.381-34.396 15.245-4.787 31.498-9.448 31.751-9.195zm9.7 2.518c.503-.125 3.528 1.387 7.182 3.526 30.616 17.513 60.599 40.066 84.287 63.249 6.677 6.552 23.182 23.686 22.928 23.812 0 0-5.795.504-12.597 1.007-53.042 4.033-120.948 15.244-186.212 30.992-4.409 1.007-8.314 1.89-8.567 1.89-.249 0 4.662-4.913 10.837-10.834 38.3-36.915 55.813-60.222 76.474-101.8 2.896-6.172 5.417-11.463 5.668-11.842-.125 0-.125 0 0 0zm-280.578 28.727c1.765.376 18.144 8.064 30.49 14.236 11.339 5.668 28.349 14.741 29.23 15.495.126.126-5.923 3.276-13.353 6.93-23.688 11.843-43.971 23.055-65.139 35.906-6.047 3.655-11.086 6.68-11.212 6.68-.504 0-.379-.507 3.024-6.68 11.339-20.66 20.409-45.354 25.576-69.419.502-1.889 1.007-3.148 1.384-3.148zm-16.379 3.022c.379.379-3.905 15.875-6.549 24.316-5.168 16.001-13.86 36.033-22.3 51.152-2.019 3.526-5.041 8.692-6.679 11.589l-3.149 5.04-7.056-6.802c-8.188-7.938-14.867-12.851-23.432-17.262-3.404-1.762-6.049-3.275-6.049-3.526 0-1.008 21.544-20.536 38.049-34.647 11.842-10.205 36.788-30.237 37.165-29.86zm100.164 41.2 6.174 4.03c14.108 9.199 30.738 21.419 43.465 32.127 7.18 5.921 21.038 18.395 23.812 21.419l1.509 1.639-10.202 2.897c-57.704 15.999-102.304 30.236-154.338 49.388-5.795 2.141-10.709 3.905-11.088 3.905-.754 0-1.386.629 11.593-11.341 33.262-30.612 62.741-64.38 84.664-97.263l4.411-6.801zm-26.332 6.551c.251.251-17.009 24.566-27.342 38.3-12.346 16.379-34.269 43.844-49.387 61.733-6.298 7.434-11.715 13.607-11.968 13.734-.379.126-.504-1.764-.504-4.662 0-15.246-3.905-31.498-10.71-45.356-2.897-5.795-3.402-7.182-2.77-7.811 2.393-2.142 39.056-23.057 62.237-35.529 15.623-8.315 40.062-20.661 40.444-20.409zm-159.252 39.057c.379 0 3.276 1.51 6.553 3.275 8.063 4.409 15.244 9.323 21.669 14.615.251.251-3.023 2.898-7.307 6.046-11.969 8.567-30.111 22.301-40.693 30.743-11.089 8.819-11.465 9.071-10.206 7.181 8.316-12.725 12.472-19.906 16.883-29.103 3.905-8.188 7.81-17.89 10.582-26.332 1.007-3.654 2.268-6.425 2.519-6.425zm42.46 33.26c.628-.125 1.386 1.008 4.786 6.048 7.182 10.707 12.725 25.072 14.113 36.663l.249 2.521-17.258 6.678c-30.869 11.967-59.341 23.811-78.62 32.629-5.416 2.521-14.865 7.055-21.038 10.081-6.174 3.148-11.213 5.542-11.213 5.417 0-.126 3.905-3.024 8.692-6.553 37.673-27.338 70.303-57.325 94.744-87.31 2.647-3.15 5.042-6.048 5.292-6.174h.253zm-19.528 4.788c.504.504-13.858 16.756-23.686 26.709-24.316 24.821-48.38 44.224-78.24 63.123-3.78 2.393-7.181 4.534-7.56 4.787-.882.504.251-.757 13.355-14.994 8.316-8.945 14.615-16.504 21.796-25.826 4.787-6.173 5.67-7.055 12.601-11.971 18.52-13.355 61.229-42.333 61.734-41.828z" style="fill:url(#d);fill-rule:nonzero"/><path d="M716.677 1508.92c-2.324 0-4.649.221-6.953.221-46.943 2.502-78.604 23.161-97.116 63.505-15.832 36.488-14.104 84.183.178 120.894 16.607 35.871 43.443 54.802 88.236 61.953 9.477 1.552 15.833 6.755 34.188 28.187l22.586 26.461h40.963l-27.238-27.458c-15.056-15.056-27.235-28.165-27.235-29.317 0-1.151 5.76-3.675 12.732-5.8 22.984-6.955 42.071-24.711 55.422-51.925 10.806-21.853 12.357-28.608 13.906-55.797 4.053-80.929-38.617-131.526-109.671-130.948l.002.024zm35.914 211.635c-19.928 9.652-48.865 11.579-67.754 4.649-19.53-7.173-38.439-27.455-46.943-50.417-9.454-25.109-8.104-71.429 2.701-92.29 17.382-33.213 40.367-48.49 73.956-48.49 49.82 0 78.161 30.514 81.86 87.86 2.923 47.873-13.109 83.787-43.799 98.668l-.021.02zm707.621-142.507c-17.182 0-30.335 6.954-39.193 20.657l-6.953 10.851v-28.21h-29.736v169.167h29.717v-54.071c0-49.444.616-55.223 7.526-68.753 9.522-18.555 25.905-27.808 41.74-23.38l10.627 3.1v-29.316h-13.728v-.045zm-174.702-1.551c-5.825 0-12.003.776-18.155 2.127-39.792 10.405-62.222 48.49-60.849 87.682 0 32.816 6.375 49.221 22.21 66.427 32.439 26.614 61.776 28.739 101.366 14.46 6.754-2.879 14.105-6.2 14.105-6.2v-26.614l-14.105 7.306c-32.04 13.949-56.175 13.949-75.507-2.481-12.33-12.555-17.757-27.611-20.258-44.792h119.9v-22.809c0-46.498-27.988-75.859-68.731-75.106h.024zm-48.492 74.177s4.429-29.006 20.858-40.387c7.907-5.582 16.984-8.281 25.862-8.281 8.902 0 17.781 2.877 25.11 8.481 15.058 11.58 17.581 39.967 17.581 39.967h-89.41v.22h-.001zm-716.899-30.511c-32.238-19.531-46.542-33.614-44.793-50.221 5.004-45.944 61.778-39.589 93.218-22.207l.224-30.909s-17.383-7.529-42.294-7.928c-38.217-.576-62.928 11.956-74.506 37.464-17.007 37.641-1.949 66.027 52.478 97.692 30.555 17.779 44.061 33.213 44.061 50.04 0 34.764-41.915 46.899-85.158 25.088-8.899-4.429-16.429-8.127-16.827-8.127-1.551 9.854-.751 33.435-.751 33.435s13.286 5.581 33.212 9.43c49.419 9.854 94.392-13.329 98.643-50.97 3.698-35.338-9.081-53.872-57.505-82.812l-.002.025zm1203.28-44.064c-5.802 0-11.958.797-18.379 2.148-39.744 10.406-62.132 48.492-60.605 87.684 0 32.771 6.357 49.023 22.187 66.204 32.44 26.638 61.778 28.785 101.568 14.483 6.731-2.878 14.06-6.153 14.06-6.153v-26.659l-14.081 7.349c-32.105 13.905-56.242 13.905-75.505-2.524-12.4-12.532-17.78-27.412-20.283-44.795h119.701v-22.806c0-46.276-27.989-75.66-68.731-74.884l.068-.047zm-48.493 74.176s4.474-28.962 20.88-40.565c7.884-5.601 16.961-8.304 25.84-8.304 8.857 0 17.781 2.879 25.112 8.503 15.057 11.581 17.582 40.166 17.582 40.166h-89.389l-.025.2zm-545.052-29.736c-32.238-19.485-46.499-33.613-44.771-50.221 5.003-45.968 61.778-39.589 93.219-22.207l.222-30.91s-17.382-7.529-42.293-7.884c-38.217-.575-62.928 11.958-74.528 37.465-16.984 37.64-1.728 66.028 52.52 97.692 30.513 17.759 44.019 32.992 44.019 49.819 0 34.765-41.893 47.098-85.137 25.087-8.857-4.428-16.384-8.083-16.827-8.083-1.551 9.852-.752 33.436-.752 33.436s13.129 5.381 32.991 9.431c49.465 9.876 94.458-13.286 98.688-50.927 3.676-35.162-9.078-53.695-57.349-82.657v-.041h-.002zm768.269-42.89c-17.183 0-30.488 6.973-39.192 20.681l-6.954 10.805v-28.164h-29.736v169.121h29.714v-54.069c0-49.422.597-55.224 7.531-68.731 9.52-18.532 25.903-27.808 41.736-23.359l10.627 3.098v-29.381h-13.726v-.001zm-1004.75 41.915v-107.746h-29.98v238.651h126.079v-28.185h-96.098v-102.72h-.001zm693.316 33.589-24.711 64.301-23.76-64.655-24.135-71.651h-30.688c19.885 56.374 41.514 113.721 63.326 169.321 9.455.221 18.932 0 28.385 0l33.37-83.786 33.988-85.514h-29.337s-12.955 33.967-26.46 72.006l.022-.022zm-624.233-206.366c4.827 0 8.856-1.548 12.178-4.869 3.275-3.279 5.003-7.132 5.003-11.958 0-4.828-1.728-8.858-5.003-11.958-3.322-3.099-7.153-4.651-11.958-4.651-4.869 0-8.9 1.552-12.178 4.828-3.321 3.279-4.827 7.309-4.827 11.959 0 4.871 1.551 8.899 4.827 11.957 3.101 3.098 7.131 4.649 11.958 4.649v.043zm-10.628-27.455c2.878-2.878 6.377-4.208 10.849-4.208 4.208 0 7.707 1.33 10.63 4.208 2.879 2.878 4.429 6.376 4.429 10.628 0 4.251-1.55 7.927-4.429 10.805-2.922 2.876-6.422 4.25-10.63 4.25-4.273 0-7.75-1.328-10.627-4.25-2.878-2.878-4.428-6.554-4.428-10.805 0-4.252 1.328-7.749 4.206-10.628zm7.151 12.179h1.948c1.374 0 2.724 1.327 3.875 3.852l2.327 5.224h3.652l-2.877-5.803c-1.173-2.322-2.324-3.673-3.676-4.052 1.705-.398 3.055-.973 4.03-2.126.972-.995 1.328-2.346 1.328-3.875 0-1.77-.554-3.098-1.726-4.073-1.329-1.107-3.455-1.704-6.202-1.704h-6.153v21.633h3.099v-9.078l.375.002zm-.042-10.053h2.745c1.948 0 3.321.398 4.074.973.731.576.93 1.33.93 2.701 0 2.502-1.552 3.677-4.429 3.677h-3.32v-7.351zm-495.191 8.125c0-7.528-.221-13.129-.399-16.429h.178c.774 3.895 1.727 6.797 2.502 8.723l28.783 64.302h4.828l28.784-64.877c.777-1.769 1.552-4.428 2.503-8.126h.221c-.575 6.422-.774 12.001-.774 16.451v56.752h9.851v-84.362h-12.355l-26.459 58.676c-.975 2.324-2.326 5.803-4.052 10.408h-.4c-.575-2.281-1.926-5.758-3.852-10.01l-25.863-59.276h-13.129v84.362h9.476v-56.552l.157-.042zm98.067.157h8.505v52.542h-8.505v-52.542zm4.252-19.265c1.773 0 3.278-.599 4.428-1.771 1.175-1.152 1.951-2.657 1.951-4.428 0-1.727-.577-3.278-1.927-4.428-1.196-1.174-2.724-1.774-4.473-1.774-1.726 0-3.276.6-4.43 1.774-1.17 1.15-1.947 2.701-1.947 4.428 0 1.927.598 3.276 1.947 4.428 1.332 1.172 2.703 1.771 4.43 1.771h.021zm64.878 72.96v-9.257c-4.651 3.477-9.655 5.205-14.836 5.205-6.198 0-11.226-2.124-14.902-6.197-3.652-4.031-5.601-9.635-5.601-16.609 0-7.307 1.949-13.11 5.978-17.539 3.875-4.25 8.902-6.376 15.058-6.376 5.026 0 9.851 1.552 14.304 4.653v-9.854c-4.051-2.125-8.679-3.101-13.905-3.101-9.656 0-17.182 3.101-22.806 9.082-5.581 5.977-8.459 14.104-8.459 23.913 0 8.723 2.501 16.053 7.707 21.656 5.423 5.755 12.356 8.679 20.858 8.679 6.573-.182 11.953-1.555 16.604-4.255zm24.333-28.011c0-6.931 1.55-12.531 4.429-16.387 2.702-3.474 5.978-5.224 9.853-5.224 3.277 0 5.601.598 7.306 1.949v-10.054c-1.328-.575-3.255-.774-5.756-.774-3.477 0-6.575 1.17-9.299 3.322-2.878 2.278-5.181 5.757-6.532 10.185h-.22v-12.335h-9.632v60.228h9.653v-30.91h.198zm55.422 32.105c9.08 0 16.386-2.923 21.81-8.722 5.402-5.76 8.104-13.508 8.104-23.164 0-9.85-2.479-17.38-7.528-22.984-5.003-5.599-11.957-8.304-21.037-8.304-9.079 0-16.386 2.703-21.81 7.928-5.8 5.76-8.856 13.885-8.856 24.314 0 9.079 2.48 16.608 7.707 22.21 5.401 5.799 12.554 8.7 21.61 8.7v.022zm-13.728-49.067c3.676-3.875 8.505-5.802 14.481-5.802 6.202 0 10.851 1.927 14.305 5.802 3.476 4.053 5.204 9.833 5.204 17.56 0 7.349-1.551 13.129-4.828 17.004-3.276 4.053-8.103 6.199-14.482 6.199-6.199 0-11.004-2.148-14.68-6.199-3.652-4.074-5.402-9.655-5.402-17.004-.376-7.307 1.551-13.284 5.402-17.56zm85.913 43.82c3.675-3.275 5.626-7.305 5.626-12.357 0-4.428-1.553-8.103-4.43-11.004-2.348-2.323-5.977-4.428-11.225-6.554-4.652-1.946-7.53-3.676-9.081-5.027-1.549-1.548-2.501-3.473-2.501-6.198 0-2.502.975-4.429 2.88-5.979 1.948-1.548 4.428-2.3 7.75-2.3 5.203 0 9.653 1.371 13.726 4.273v-9.655c-3.896-1.946-8.126-2.877-12.953-2.877-6.199 0-11.425 1.707-15.279 5.003-4.053 3.279-5.978 7.53-5.978 12.532 0 4.429 1.328 8.105 3.851 10.805 2.126 2.304 5.76 4.652 10.806 6.753 4.828 2.127 8.105 4.052 9.853 5.601 1.727 1.552 2.502 3.477 2.502 5.76 0 5.622-3.852 8.525-11.381 8.525-5.802 0-11.003-1.906-15.656-5.757v10.403c4.208 2.527 9.257 3.677 14.836 3.677 7.152-.376 12.753-2.125 16.606-5.601l.048-.023zm45.968-57.925c-9.081 0-16.386 2.703-21.811 7.928-5.757 5.76-8.857 13.885-8.857 24.314 0 9.079 2.504 16.608 7.706 22.21 5.425 5.799 12.554 8.7 21.633 8.7 9.299 0 16.386-2.921 21.81-8.725 5.425-5.756 8.126-13.506 8.126-23.161 0-9.853-2.524-17.38-7.53-22.983-5.222-5.602-12.178-8.304-21.034-8.304l-.043.021zm18.731 31.666c0 7.349-1.55 13.129-4.827 17.004-3.277 4.053-8.105 6.199-14.482 6.199-6.202 0-11.005-2.148-14.682-6.199-3.652-4.074-5.402-9.655-5.402-17.004 0-7.75 1.928-13.728 5.803-17.76 3.651-3.852 8.481-5.801 14.481-5.801 5.977 0 10.783 1.947 14.258 5.801 3.101 4.251 4.829 10.031 4.829 17.76h.022zm26.085 30.134h9.632v-52.143h14.104v-8.106h-14.105v-9.299c0-8.457 3.275-12.709 10.052-12.709 2.281 0 4.606.575 6.334 1.55v-8.7c-1.728-.775-4.053-.952-6.956-.952-5.202 0-9.453 1.551-12.93 4.827-4.053 3.852-6.199 8.857-6.199 15.634v9.876h-10.188v8.103h10.188v51.948l.068-.029zm39.566-16.43c0 11.781 5.206 17.781 15.833 17.781 3.853 0 6.753-.619 9.078-1.992v-8.281c-1.77 1.33-3.875 1.95-6.199 1.95-3.275 0-5.579-.778-6.931-2.527-1.373-1.724-2.147-4.65-2.147-8.68v-33.987h15.276v-8.105h-15.276v-17.756c-3.322 1.15-6.576 2.125-9.655 3.098v14.657h-10.407v8.105h10.407v35.716l.021.021zm1036.26 111.02c-3.276-3.098-7.151-4.649-11.955-4.649-4.871 0-8.903 1.551-12.179 4.872-3.277 3.255-4.829 7.306-4.829 11.958 0 4.827 1.552 8.857 4.804 11.955 3.279 3.1 7.307 4.652 12.179 4.652 4.804 0 8.857-1.552 12.18-4.829 3.255-3.321 4.981-7.151 4.981-11.955-.177-4.872-1.926-8.903-5.203-12.002l.022-.002zm-1.549 22.809c-2.879 2.877-6.377 4.206-10.629 4.206-4.206 0-7.704-1.329-10.627-4.206-2.877-2.924-4.429-6.577-4.429-10.851 0-4.208 1.328-7.704 4.251-10.627 2.878-2.877 6.356-4.208 10.805-4.208 4.208 0 7.708 1.331 10.629 4.208 2.878 2.923 4.428 6.419 4.428 10.627 0 4.474-1.329 7.927-4.428 10.851zm-8.681-9.855c1.727-.398 3.101-1.173 4.053-2.124.975-.998 1.33-2.35 1.33-3.896 0-1.727-.554-3.101-1.726-4.052-1.329-1.108-3.476-1.706-6.198-1.706h-6.156v21.609h3.101v-9.078h1.925c1.33 0 2.659 1.327 3.852 3.852l2.302 5.204h3.677l-2.877-5.803c-.997-2.524-2.149-3.677-3.32-4.054l.037.048zm-2.125-1.947h-3.321v-7.305h2.724c1.927 0 3.277.352 4.053.951.774.575.951 1.329.951 2.702 0 2.502-1.549 3.654-4.427 3.654l.02-.002zm-538.696-168.347h2.701v-21.633h7.15v-2.702h-17.003v2.702h7.154v21.633h-.002zm16.385-16.252c0-2.106 0-3.833-.156-4.805.178 1.15.576 1.927.754 2.502l8.304 18.555h1.329l8.323-18.734c.224-.575.402-1.328.776-2.323-.177 1.927-.177 3.473-.177 4.649v16.386h2.879v-24.313h-3.478l-7.526 16.784c-.178.599-.778 1.771-1.153 3.101h-.221c-.155-.777-.553-1.551-1.107-2.877l-7.528-17.006h-3.897v24.356h2.722v-16.252l.156-.023z" style="fill:#231f1f;fill-rule:nonzero"/></g><defs><linearGradient id="b" x1="0" y1="0" x2="1" y2="0" gradientUnits="userSpaceOnUse" gradientTransform="rotate(-30.578 3007.584 -1367.337) scale(70.0086)"><stop offset="0" style="stop-color:#909ca9;stop-opacity:1"/><stop offset="1" style="stop-color:#ededee;stop-opacity:1"/></linearGradient><linearGradient id="c" x1="0" y1="0" x2="1" y2="0" gradientUnits="userSpaceOnUse" gradientTransform="translate(1115.21 668.425) scale(48.4971)"><stop offset="0" style="stop-color:#939fab;stop-opacity:1"/><stop offset="1" style="stop-color:#dcdee1;stop-opacity:1"/></linearGradient><radialGradient id="d" cx="0" cy="0" r="1" gradientUnits="userSpaceOnUse" gradientTransform="matrix(-61.8325 -9.28792 -18.7846 123.665 1359.91 890.847)"><stop offset="0" style="stop-color:#ee352c;stop-opacity:1"/><stop offset="1" style="stop-color:#a91d22;stop-opacity:1"/></radialGradient></defs></svg>