<svg viewBox="0 0 34 34" xmlns="http://www.w3.org/2000/svg" xml:space="preserve" style="fill-rule:evenodd;clip-rule:evenodd;stroke-linejoin:round;stroke-miterlimit:2"><path d="M33.903 3.229A3.23 3.23 0 0 0 30.674 0H3.229A3.23 3.23 0 0 0 0 3.229v27.445a3.23 3.23 0 0 0 3.229 3.229h27.445a3.23 3.23 0 0 0 3.229-3.229V3.229z" style="fill:#e20014"/><path d="m8.832 4.069 12.002.026 6.179 6.472.039 18.207s.076.737-.649.737l-17.559-.013s-1.08-.127-1.08-.877-.038-23.547-.038-23.547S7.7 4.069 8.832 4.069z" style="fill:#fff"/><path style="fill:#e20017" d="M10.242 9.746h13.503v5.618H10.242z"/><text x="11.391" y="14.868" style="font-family:'Arial-BoldMT','Arial',sans-serif;font-weight:700;font-size:6.005px;fill:#fff">PDF</text></svg>