<svg viewBox="0 0 2400 2400" xmlns="http://www.w3.org/2000/svg" xml:space="preserve" style="fill-rule:evenodd;clip-rule:evenodd;stroke-linejoin:round;stroke-miterlimit:2"><clipPath id="a"><path d="M545.745 545.745h1308.51v1308.51H545.745z"/></clipPath><g clip-path="url(#a)"><path d="M1850.52 670.015c-.021-68.165-56.105-124.249-124.27-124.27H670.01c-68.165.021-124.249 56.105-124.27 124.27v1056.24c.021 68.165 56.105 124.249 124.27 124.27h1056.24c68.165-.021 124.249-56.105 124.27-124.27V670.015z" style="fill:#e20014"/><path d="m885.65 702.343 461.904 1 237.802 249.079 1.501 700.707s2.925 28.364-24.977 28.364l-675.769-.5s-41.564-4.888-41.564-33.752c0-28.864-1.462-906.22-1.462-906.22s-1.001-38.678 42.565-38.678z" style="fill:#fff"/><path style="fill:#e20017" d="M939.914 920.825h519.671v216.212H939.914z"/><text x="984.134" y="1117.95" style="font-family:'Arial-BoldMT','Arial',sans-serif;font-weight:700;font-size:231.106px;fill:#fff">PDF</text></g></svg>