<svg viewBox="0 0 2400 2400" xmlns="http://www.w3.org/2000/svg" xml:space="preserve" style="fill-rule:evenodd;clip-rule:evenodd;stroke-linejoin:round;stroke-miterlimit:2"><path d="M1200 1091.18c134.324 0 259.863-12.186 376.617-36.557 116.755-24.371 208.854-60.361 276.3-107.969v144.526c0 39.107-29.189 75.38-87.566 108.819-58.377 33.439-137.725 59.936-238.043 79.489-100.317 19.554-209.42 29.33-327.308 29.33s-226.991-9.776-327.308-29.33c-100.318-19.553-179.666-46.05-238.043-79.489-58.377-33.439-87.566-69.712-87.566-108.819V946.654c67.446 47.608 159.545 83.598 276.3 107.969 116.754 24.371 242.293 36.557 376.617 36.557zm0 652.916c134.324 0 259.863-12.185 376.617-36.556 116.755-24.371 208.854-60.361 276.3-107.97v144.526c0 39.107-29.189 75.38-87.566 108.82-58.377 33.439-137.725 59.935-238.043 79.489-100.317 19.553-209.42 29.33-327.308 29.33s-226.991-9.777-327.308-29.33c-100.318-19.554-179.666-46.05-238.043-79.489-58.377-33.44-87.566-69.713-87.566-108.82V1599.57c67.446 47.609 159.545 83.599 276.3 107.97 116.754 24.371 242.293 36.556 376.617 36.556zm0-326.458c134.324 0 259.863-12.186 376.617-36.557 116.755-24.371 208.854-60.36 276.3-107.969v144.526c0 39.107-29.189 75.38-87.566 108.819-58.377 33.44-137.725 59.936-238.043 79.49-100.317 19.553-209.42 29.33-327.308 29.33s-226.991-9.777-327.308-29.33c-100.318-19.554-179.666-46.05-238.043-79.49-58.377-33.439-87.566-69.712-87.566-108.819v-144.526c67.446 47.609 159.545 83.598 276.3 107.969 116.754 24.371 242.293 36.557 376.617 36.557zm0-979.375c117.888 0 226.991 9.777 327.308 29.33 100.318 19.554 179.666 46.05 238.043 79.489 58.377 33.44 87.566 69.713 87.566 108.82v108.819c0 39.107-29.189 75.38-87.566 108.82-58.377 33.439-137.725 59.935-238.043 79.489-100.317 19.553-209.42 29.33-327.308 29.33s-226.991-9.777-327.308-29.33c-100.318-19.554-179.666-46.05-238.043-79.489-58.377-33.44-87.566-69.713-87.566-108.82V655.902c0-39.107 29.189-75.38 87.566-108.82 58.377-33.439 137.725-59.935 238.043-79.489 100.317-19.553 209.42-29.33 327.308-29.33z" style="fill-rule:nonzero"/></svg>