<svg viewBox="0 0 2400 2400" xmlns="http://www.w3.org/2000/svg" xml:space="preserve" style="fill-rule:evenodd;clip-rule:evenodd;stroke-linejoin:round;stroke-miterlimit:2"><path d="M1230.1 560.924h88.282v118.897c148.777 0 297.542.298 446.307-.451 25.123 1.034 52.767-.737 74.608 14.267 15.303 21.997 13.531 49.938 14.565 75.203-.737 258.009-.44 515.875-.285 773.729-.737 43.255 4.007 87.39-5.053 130.05-5.945 30.914-43.101 31.651-67.927 32.697-153.972.44-308.088-.297-462.215 0v133.76h-92.301c-226.5-41.174-453.453-79.209-680.239-118.897v-1040.2c228.142-39.688 456.271-78.77 684.258-119.052z" style="fill:#207245;fill-rule:nonzero"/><path d="M1318.38 724.408h490.454v936.322H1318.38v-89.174h118.898V1467.52H1318.38v-59.449h118.898v-104.035H1318.38v-59.449h118.898v-104.036H1318.38v-59.449h118.898V977.066H1318.38v-59.449h118.898V813.582H1318.38v-89.174z" style="fill:#fff;fill-rule:nonzero"/><path style="fill:#207245;fill-rule:nonzero" d="M1496.73 813.582h208.071v104.036H1496.73z"/><path d="M986.061 952.835c33.589-2.378 67.332-4.459 101.063-6.088a30972.606 30972.606 0 0 1-119.932 243.587c40.877 83.228 82.622 165.862 123.642 249.091a8506.745 8506.745 0 0 1-107.294-6.837c-25.265-61.981-56.036-121.87-74.168-186.67-20.201 60.341-49.046 117.258-72.219 176.421-32.554-.452-65.108-1.783-97.651-3.127 38.19-74.751 75.049-150.109 114.428-224.42-33.434-76.546-70.15-151.595-104.63-227.689 32.696-1.938 65.393-3.864 98.09-5.648 22.139 58.117 46.359 115.474 64.657 175.077 19.606-63.158 48.891-122.607 74.014-183.697z" style="fill:#fff;fill-rule:nonzero"/><path d="M1496.73 977.066h208.071v104.036H1496.73V977.066zm0 163.485h208.071v104.036H1496.73v-104.036zm0 163.485h208.071v104.035H1496.73v-104.035zm0 163.484h208.071v104.036H1496.73V1467.52z" style="fill:#207245;fill-rule:nonzero"/></svg>