<svg viewBox="0 0 2400 2400" xmlns="http://www.w3.org/2000/svg" xml:space="preserve" style="fill-rule:evenodd;clip-rule:evenodd;stroke-linejoin:round;stroke-miterlimit:2"><clipPath id="a"><path d="M512.24 745.869H1880.1v908.262H512.24z"/></clipPath><g clip-path="url(#a)"><path d="M1850.08 745.891c-21.104.678-14.431 6.758-60.031 17.978-46.049 11.332-102.297 7.854-151.883 28.653-148.025 62.082-177.725 274.257-312.292 350.263-100.587 56.814-202.072 61.345-293.31 89.939-59.961 18.801-125.554 57.36-179.878 104.178-42.165 36.346-43.266 68.312-87.327 113.906-47.123 48.763-187.3.823-250.83 75.461 20.463 20.692 29.439 26.489 69.765 21.12-8.345 15.825-57.567 29.16-47.934 52.444 10.14 24.496 129.133 41.101 237.307-24.203 50.376-30.416 90.506-74.258 168.958-84.719 101.528-13.533 218.49 8.676 336.025 25.629-17.428 51.963-52.418 86.52-80.446 127.905-8.681 9.349 17.434 10.396 47.225 4.749 53.587-13.25 92.204-23.924 132.649-47.464 49.687-28.926 57.22-103.078 118.181-119.127 33.963 52.209 126.349 64.54 183.671 22.781-50.301-14.238-64.203-121.306-47.224-168.482 16.082-44.665 31.976-116.097 48.175-175.134 17.391-63.397 23.802-143.308 44.847-175.605 31.667-48.587 66.651-65.272 97.024-92.669 30.379-27.403 58.182-54.069 57.269-116.765-.294-20.196-10.739-31.448-29.941-30.838z" style="fill:#002b64;fill-rule:nonzero"/><path d="M558.22 1595.36c77.031 11.038 123.876 0 185.734-26.82 52.637-22.83 103.467-69.889 165.624-89.838 91.281-29.289 191.382.037 288.961 5.887 23.764 1.427 47.374 1.443 70.679-1.095 36.346-22.343 35.598-105.908 70.978-113.565-1.042 117.246-49.11 187.498-99.38 255.521 105.946-18.71 169.348-79.991 212.17-161.836 12.993-24.817 24.085-51.515 33.894-79.5 15.168 11.642 6.572 47.059 14.196 66.25 72.976-40.653 114.761-133.424 142.437-227.252 32.013-108.591 45.119-218.55 65.768-250.681 20.153-31.361 51.515-50.691 80.141-70.769 32.537-22.83 61.548-46.621 66.56-90.116-34.306-3.173-42.24-11.113-47.315-28.402-17.177 9.681-32.97 11.754-50.815 12.289-15.483.47-32.494-.22-53.272 1.912-171.822 17.647-193.658 207.03-303.787 314.387a258.35 258.35 0 0 1-25.832 21.926c-38.575 28.744-85.89 49.282-129.401 65.914-70.433 26.911-137.393 28.824-203.472 52.054-48.512 17.048-97.803 41.78-137.644 69.049a407.492 407.492 0 0 0-27.985 20.853c-23.38 19.126-38.73 40.353-53.572 62.189-15.312 22.493-30.095 45.643-52.631 67.756-36.512 35.85-172.943 10.456-220.974 43.704-5.354 3.697-9.607 8.136-12.502 13.468 26.211 11.909 43.714 4.601 73.863 7.934 3.953 28.611-62.2 45.611-52.423 58.786v-.005zm1040.98-206.09c2.052 32.82 21.104 97.932 37.923 113.763-32.944 8.014-89.689-5.226-104.247-28.461 7.479-33.552 46.406-64.22 66.324-85.302z" style="fill:#fff;fill-rule:nonzero"/><path d="M1647.46 868.404c24.32 21.115 75.359 4.168 66.239-37.847-37.795-3.131-59.689 9.697-66.239 37.847zm169.572-49.105c-6.464 13.571-18.854 31.068-18.854 65.609-.054 5.93-4.504 9.996-4.579.855.337-33.766 9.27-48.357 18.764-67.537 4.413-7.86 7.068-4.617 4.669 1.073z" style="fill:#002b64;fill-rule:nonzero"/><path d="M1810.52 814.192c-7.634 12.945-26.008 36.565-29.048 70.978-.561 5.898-5.359 9.553-4.632.433 3.312-33.595 18-54.624 29.145-72.902 5.059-7.432 7.437-3.969 4.535 1.491zm-5.941-6.775c-8.692 12.256-36.982 40.621-42.896 74.665-1.063 5.823-6.15 9.072-4.654.042 6.123-33.205 30.507-59.304 43.148-76.566 5.663-6.999 7.736-3.339 4.402 1.859zm-5.3-7.554c-10.327 10.909-44.05 47.08-54.682 79.948-1.881 5.615-7.373 8.121-4.616-.609 10.722-32.014 40.257-66.501 55.201-81.808 6.598-6.128 8.131-2.217 4.097 2.469z" style="fill:#002b64;fill-rule:nonzero"/></g></svg>