<svg viewBox="0 0 2400 2400" xmlns="http://www.w3.org/2000/svg" xml:space="preserve" style="fill-rule:evenodd;clip-rule:evenodd;stroke-linejoin:round;stroke-miterlimit:2"><path d="M1493.16 941.596c19.574 56.625 33.672 114.433 38.307 174.351 5.756 74.333 3.122 148.142-12.55 221.255-.427 2.013-1.329 3.903-2 5.854-4.915.013-9.927-.597-14.732.147-40.6 6.378-81.163 12.988-121.726 19.562-41.929 6.793-83.919 13.317-125.775 20.574-14.83 2.561-33.185-.5-39.173 20.013-.171.561-1.878.659-2.866.976l2.025-122.58-2.062-295.771 19.538-3.354c31.953-5.232 63.906-10.537 95.883-15.623 38.161-6.061 76.358-11.952 114.543-17.867 16.842-2.622 33.709-5.025 50.588-7.537z" style="fill:#439934"/><path d="M1172.3 1761.66c-20.61-17.721-41.941-34.661-61.698-53.296-106.31-100.273-184.071-218.292-222.365-360.58-10.55-39.16-17.587-78.955-19.843-119.421-1.585-28.318-3.878-56.893-1.878-85.065 5.33-74.931 16.159-149.142 38.136-221.317l1.208-1.683c2.134 2.842 5.207 5.354 6.293 8.562a47497.826 47497.826 0 0 1 63.93 189.656c66.564 198.791 133.043 397.631 199.718 596.373 1.305 3.878 4.683 7.061 7.11 10.562l-10.611 36.209z" style="fill:#45a538"/><path d="M1493.16 941.596c-16.879 2.512-33.758 4.915-50.6 7.513-38.185 5.915-76.382 11.805-114.543 17.867-31.977 5.085-63.93 10.39-95.883 15.622l-19.538 3.354-.146-12.744c-.646-10.477-1.756-20.941-1.878-31.417-.842-66.808-1.366-133.617-2.196-200.425-.512-41.819-1.28-83.626-2.134-125.433-.524-25.977-1.085-51.967-2.256-77.907-.634-13.94-2.878-27.806-3.793-41.746-.512-8.013.195-16.086.354-24.135 9.964 19.305 19.708 38.758 29.953 57.917 16.183 30.294 41.965 52.613 65.174 76.968 91.749 96.249 156.886 208.157 197.486 334.566z" style="fill:#46a037"/><path d="M1212.63 1404.32c.988-.317 2.707-.415 2.866-.976 5.988-20.513 24.343-17.452 39.173-20.013 41.855-7.245 83.846-13.781 125.775-20.575 40.563-6.573 81.126-13.183 121.725-19.562 4.806-.756 9.818-.134 14.733-.146-7.586 27.075-13.562 54.735-23.184 81.065-10.928 29.868-24.148 59.016-38.185 87.59a599.297 599.297 0 0 1-77.48 119.068c-23.403 28.147-49.49 54.161-75.638 79.858-14.452 14.208-31.489 25.781-47.344 38.55l-4.11-2.805-14.806-12.659-15.317-33.575a504.93 504.93 0 0 1-17.001-119.982l.28-6.842 2.086-29.587c.695-10.098 1.622-20.184 2.049-30.306 1.573-36.368 2.939-72.736 4.378-109.103z" style="fill:#409433"/><path d="M1212.63 1404.32c-1.439 36.367-2.805 72.735-4.354 109.115-.427 10.123-1.354 20.209-2.049 30.307l-9.33 3.524c-20.72-61.003-41.453-121.36-61.735-181.875-33.538-100.115-66.674-200.389-100.164-300.528a54785.021 54785.021 0 0 0-81.711-242.294c-1.281-3.78-4.964-6.732-7.525-10.073l59.711-109.787c2.048 3.562 4.756 6.891 6.049 10.721a75304.818 75304.818 0 0 1 82.541 245.354c35.562 106.469 70.906 213.023 106.444 319.505 1.415 4.256 3.757 8.183 5.988 12.952l8.172-9.513-2.037 122.592z" style="fill:#4faa41"/><path d="M945.779 812.504c2.561 3.342 6.232 6.293 7.525 10.074a54871.373 54871.373 0 0 1 81.712 242.293c33.489 100.139 66.625 200.413 100.164 300.528 20.269 60.503 41.002 120.872 61.734 181.875l9.33-3.524-2.085 29.587-1.891 6.817c-3.244 32.392-5.976 64.857-9.927 97.176-1.988 16.196-6.208 32.099-9.415 48.137-2.415-3.5-5.805-6.684-7.11-10.562-66.674-198.754-133.154-397.582-199.718-596.373a47602.395 47602.395 0 0 0-63.93-189.656c-1.086-3.208-4.147-5.72-6.293-8.561l39.904-107.811z" style="fill:#4aa73c"/><path d="m1214.66 1281.74-8.171 9.513c-2.232-4.769-4.573-8.708-5.988-12.952-35.526-106.481-70.882-213.036-106.445-319.505a75064.963 75064.963 0 0 0-82.541-245.354c-1.28-3.83-3.988-7.171-6.049-10.72l73.846-97.14c2.329 3.11 5.646 5.879 6.854 9.379 20.501 60.015 40.819 120.104 61.015 180.229 18.867 56.149 37.453 112.384 56.54 168.46 1.28 3.756 5.732 6.415 8.707 9.586l.147 12.745c.707 98.566 1.402 197.168 2.085 295.759z" style="fill:#57ae47"/><path d="M1212.45 973.208c-2.976-3.171-7.427-5.83-8.708-9.586-19.086-56.076-37.673-112.311-56.539-168.46-20.197-60.126-40.515-120.202-61.016-180.229-1.207-3.501-4.525-6.269-6.854-9.379 24.014-23.513 47.283-47.868 72.26-70.296 22.208-19.928 40.063-41.295 40.88-72.785.037-1.305.72-2.61 1.769-6.268l6.329 15.927c-.158 8.062-.878 16.123-.353 24.136.914 13.939 3.158 27.806 3.792 41.746 1.171 25.94 1.732 51.929 2.257 77.906.841 41.807 1.609 83.615 2.134 125.434.817 66.808 1.354 133.617 2.195 200.425.098 10.501 1.195 20.952 1.854 31.429z" style="fill:#60b24f"/><path d="M1182.9 1725.45c3.207-16.038 7.427-31.953 9.415-48.137 3.963-32.307 6.683-64.784 9.927-97.176l.805-.122.805.134a504.93 504.93 0 0 0 17.001 119.982c-2.147 2.83-5.183 5.354-6.318 8.549-8.866 25.002-17.22 50.198-26.135 75.199-1.22 3.415-4.61 6.074-7.001 9.074l-9.11-31.294 10.611-36.209z" style="fill:#a9aa88"/><path d="M1181.41 1792.97c2.39-3 5.793-5.659 7-9.073 8.915-25.002 17.281-50.186 26.136-75.199 1.134-3.196 4.158-5.72 6.317-8.55l15.306 33.587c-3.025 4.293-7.196 8.159-8.879 12.94l-29.318 86.09c-1.208 3.452-5.33 5.891-8.086 8.805l-8.476-48.6z" style="fill:#b6b598"/><path d="M1189.89 1841.56c2.768-2.902 6.878-5.354 8.086-8.805l29.318-86.09c1.671-4.769 5.854-8.647 8.879-12.94l14.817 12.647c-7.158 7.074-11.134 15.245-8.744 25.575l-4.5 14.732c-2.049 2.525-5.013 4.72-6.025 7.61-10.232 29.307-20.001 58.772-30.306 88.078-1.305 3.72-4.927 6.635-7.488 9.903-1.33-16.915-2.684-33.794-4.037-50.71z" style="fill:#c2c1a7"/><path d="M1193.94 1892.27c2.549-3.28 6.171-6.195 7.488-9.903 10.305-29.294 20.074-58.759 30.306-88.078 1.013-2.878 3.964-5.085 6.025-7.61l-6.208 67.626c-1.658 1.915-4.061 3.585-4.853 5.817-7.013 19.684-13.623 39.514-20.66 59.198-1.451 4.062-4.232 7.647-6.403 11.44-1.927-2.524-5.378-4.964-5.537-7.598-.622-10.257-.195-20.586-.158-30.892z" style="fill:#cecdb7"/><path d="M1199.62 1930.76c2.171-3.805 4.951-7.391 6.403-11.44 7.049-19.671 13.647-39.502 20.659-59.198.793-2.232 3.208-3.89 4.854-5.817l.147 44.392-14.855 38.1-17.208-6.037z" style="fill:#dbdac7"/><path d="m1216.83 1936.81 14.855-38.099 3.061 45.075-17.916-6.976z" style="fill:#ebe9dc"/><path d="M1242.25 1771.96c-2.39-10.33 1.573-18.513 8.744-25.575l4.11 2.806-12.854 22.769z" style="fill:#cecdb7"/><path d="m1203.85 1580.17-.805-.134-.805.122 1.89-6.817-.28 6.829z" style="fill:#4faa41"/></svg>