<svg viewBox="0 0 2400 2400" xmlns="http://www.w3.org/2000/svg" xml:space="preserve" style="fill-rule:evenodd;clip-rule:evenodd;stroke-linejoin:round;stroke-miterlimit:2"><path d="M1774.57 1564.08c-74.288-1.852-131.864 5.578-180.152 26.005-13.931 5.567-36.221 5.572-38.078 23.218 7.43 7.43 8.358 19.503 14.859 29.714 11.156 18.569 30.643 43.645 48.289 56.652 19.498 14.855 39.007 29.709 59.428 42.711 36.22 22.29 77.085 35.287 112.371 57.576 20.437 12.992 40.853 29.719 61.285 43.645 10.216 7.419 16.712 19.503 29.72 24.142v-2.781c-6.507-8.364-8.364-20.432-14.86-29.72-9.277-9.287-18.575-17.645-27.862-26.933-26.928-36.21-60.357-67.786-96.572-93.785-29.714-20.432-94.725-48.289-106.793-82.652 0 0-.934-.923-1.857-1.852 20.426-1.858 44.568-9.287 64.077-14.86 31.571-8.364 60.356-6.501 92.862-14.859 14.854-3.715 29.714-8.359 44.568-13.003v-8.353c-16.706-16.717-28.78-39.001-46.426-54.79-47.359-40.869-99.368-80.794-153.224-114.223-28.79-18.574-65.94-30.648-96.582-46.431-11.134-5.577-29.714-8.358-36.21-17.645-16.723-20.427-26.01-47.355-38.078-71.502-26.922-51.08-52.932-107.722-76.15-161.577-16.707-36.221-26.923-72.441-47.355-105.865-95.648-157.868-199.655-253.516-359.375-347.313-34.363-19.498-75.222-27.856-118.867-38.067-23.208-.934-46.431-2.786-69.644-3.72-14.86-6.501-29.719-24.142-42.722-32.5-52.921-33.434-189.439-105.859-228.44-10.211-25.076 60.357 37.149 119.785 58.499 150.438 15.799 21.356 36.22 45.497 47.365 69.644 6.501 15.778 8.353 32.506 14.854 49.217 14.865 40.849 28.786 86.362 48.294 124.44 10.216 19.497 21.356 39.924 34.358 57.57 7.43 10.211 20.427 14.86 23.218 31.572-12.997 18.574-13.931 46.436-21.366 69.649-33.429 104.936-20.421 234.942 26.933 312.015 14.855 23.208 50.146 74.299 97.506 54.79 41.793-16.712 32.506-69.644 44.568-116.075 2.797-11.155.94-18.575 6.507-26.004v1.862c13.002 25.994 25.999 51.075 38.072 77.074 28.791 45.497 78.932 92.862 120.719 124.439 22.295 16.707 39.936 45.497 67.797 55.713v-2.791h-1.862c-5.573-8.359-13.931-12.068-21.356-18.575-16.712-16.706-35.291-37.138-48.288-55.713-38.996-52.009-73.365-109.579-104.007-169.013-14.855-28.779-27.862-60.356-39.93-89.141-5.578-11.156-5.578-27.862-14.86-33.429-13.931 20.426-34.358 38.072-44.574 63.142-17.635 39.931-19.498 89.148-25.999 140.217-3.715.94-1.863 0-3.72 1.868-29.709-7.44-39.925-38.078-51.075-64.082-27.862-65.929-32.505-171.793-8.353-247.939 6.501-19.503 34.363-80.788 23.218-99.363-5.572-17.646-24.152-27.862-34.363-41.787-12.068-17.646-25.075-39.925-33.429-59.434-22.289-52.003-33.434-109.579-57.576-161.583-11.144-24.147-30.637-49.212-46.431-71.501-17.64-25.07-37.143-42.722-51.074-72.436-4.639-10.21-11.145-26.927-3.715-38.072 1.857-7.43 5.567-10.211 13.002-12.068 12.073-10.222 46.436 2.781 58.499 8.353 34.363 13.92 63.148 26.933 91.939 46.431 12.997 9.287 26.928 26.933 43.64 31.577h19.503c29.719 6.496 63.143 1.857 91.005 10.211 49.222 15.783 93.791 39.001 133.726 64.077 121.653 77.073 221.934 186.653 289.731 317.588 11.145 21.35 15.784 40.864 26 63.142 19.508 45.508 43.65 91.939 63.142 136.513 19.504 43.64 38.073 88.219 65.935 124.439 13.931 19.493 69.644 29.714 94.72 39.93 18.574 8.353 47.365 15.788 64.077 25.999 31.571 19.493 63.142 41.793 92.862 63.143 14.859 11.145 61.285 34.363 64.077 52.932z" style="fill:#00546b;fill-rule:nonzero"/><path d="M827.366 757.103c-15.783 0-26.922 1.868-38.067 4.649v1.857h1.857c7.436 14.86 20.427 25.076 29.709 38.073 7.435 14.854 13.931 29.719 21.366 44.579.924-.934 1.852-1.858 1.852-1.858 13.008-9.292 19.504-24.146 19.504-46.436-5.573-6.496-6.502-12.997-11.145-19.498-5.567-9.293-17.646-13.931-25.076-21.366z" style="fill:#00546b;fill-rule:nonzero"/></svg>