<svg viewBox="0 0 2400 2400" xmlns="http://www.w3.org/2000/svg" xml:space="preserve" style="fill-rule:evenodd;clip-rule:evenodd;stroke-linejoin:round;stroke-miterlimit:2"><path d="M1102.42 1228.98h97.813l-51.73-83.222-94.937 150.469h-43.208l115.479-180.742c5.024-7.301 13.381-11.714 22.666-11.714 8.98 0 17.349 4.261 22.208 11.409l115.925 181.047h-43.208l-20.377-33.629h-99.045l-21.586-33.618zm448.803 33.618v-156.996h-36.658v172.373c0 4.718 1.831 9.284 5.329 12.782 3.498 3.498 8.217 5.47 13.393 5.47h167.196l21.61-33.629h-170.87zm-606.586-28.136c35.602 0 64.512-28.747 64.512-64.348s-28.899-64.512-64.512-64.512h-160.4v190.637h36.658V1139.22h121.312c17.044 0 30.731 13.85 30.731 30.882 0 17.032-13.699 30.883-30.731 30.883l-103.365-.153 109.446 95.395h53.267l-73.645-61.777h16.727v.012zm-386.016 61.765c-52.622 0-95.337-42.597-95.337-95.242s42.703-95.395 95.337-95.395h110.795c52.645 0 95.324 42.762 95.324 95.395 0 52.633-42.679 95.242-95.324 95.242H558.621zm108.33-33.629c34.099 0 61.718-27.538 61.718-61.613s-27.619-61.777-61.718-61.777H561.062c-34.064 0-61.695 27.69-61.695 61.777 0 34.075 27.631 61.613 61.695 61.613h105.889zm696.229 33.629c-52.634 0-95.383-42.597-95.383-95.242s42.749-95.395 95.383-95.395h131.606l-21.468 33.618h-107.697c-34.087 0-61.789 27.69-61.789 61.777 0 34.075 27.702 61.613 61.789 61.613h132.206l-21.598 33.629H1363.18zm448.357-33.629c-28.136 0-52.035-18.863-59.336-44.886h156.703l21.598-33.618h-178.301c7.301-25.859 31.2-44.886 59.336-44.886h107.555l21.763-33.618h-131.76c-52.633 0-95.383 42.762-95.383 95.395 0 52.633 42.75 95.242 95.383 95.242h113.049l21.61-33.629h-132.217" style="fill:#ea1b22;fill-rule:nonzero"/></svg>