<svg viewBox="0 0 2400 2400" xmlns="http://www.w3.org/2000/svg" xml:space="preserve" style="fill-rule:evenodd;clip-rule:evenodd;stroke-linejoin:round;stroke-miterlimit:2"><path d="M1882.43 1340.16c-8.248-24.979-29.853-42.378-57.794-46.552-13.175-1.967-28.262-1.129-46.117 2.552-31.121 6.421-54.21 8.865-71.06 9.338 63.602-107.382 115.318-229.835 145.091-345.105 48.143-186.388 22.416-271.299-7.646-309.707-79.56-101.659-195.636-156.271-335.67-157.942-74.703-.914-140.282 13.835-174.492 24.442-31.852-5.62-66.1-8.758-102.036-9.339-67.363-1.074-126.881 13.611-177.737 43.791-28.156-9.521-73.343-22.943-125.527-31.508-122.733-20.149-221.652-4.449-294.007 46.666-87.614 61.888-128.229 169.414-120.718 319.593 2.386 47.681 29.058 192.756 71.054 330.34 24.136 79.082 49.874 144.752 76.498 195.205 37.757 71.544 78.157 113.674 123.512 128.805 25.42 8.468 71.607 14.4 120.186-26.06 6.157 7.458 14.373 14.868 25.275 21.751 13.846 8.731 30.777 15.867 47.686 20.095 60.937 15.233 118.015 11.423 166.712-9.929.301 8.661.532 16.936.725 24.082.323 11.59.645 22.954 1.07 33.582 2.885 71.86 7.775 127.735 22.261 166.83.795 2.149 1.864 5.427 2.992 8.903 7.227 22.127 19.311 59.169 50.056 88.179 31.836 30.052 70.345 39.267 105.615 39.267 17.688 0 34.565-2.322 49.368-5.492 52.764-11.31 112.69-28.536 156.041-90.263 40.986-58.352 60.909-146.24 64.515-284.722.467-3.917.897-7.656 1.311-11.219l.86-7.318 9.655.849 2.488.167c53.742 2.45 119.455-8.947 159.813-27.694 31.889-14.797 134.08-68.749 110.02-141.587" style="fill-rule:nonzero"/><path d="M1790.54 1354.33c-159.796 32.964-170.784-21.138-170.784-21.138 168.716-250.35 239.249-568.133 178.387-645.909-166.051-212.157-453.486-111.82-458.284-109.219l-1.542.279c-31.573-6.555-66.901-10.456-106.614-11.106-72.3-1.182-127.149 18.957-168.769 50.518 0 0-512.758-211.239-488.906 265.669 5.072 101.455 145.418 767.674 312.812 566.445 61.184-73.585 120.304-135.8 120.304-135.8 29.359 19.504 64.51 29.455 101.359 25.882l2.864-2.428c-.892 9.134-.484 18.07 1.144 28.649-43.124 48.181-30.449 56.638-116.655 74.386-87.233 17.978-35.99 49.981-2.531 58.352 40.562 10.139 134.398 24.507 197.801-64.252l-2.526 10.128c16.893 13.535 28.757 88.028 26.769 155.563-1.988 67.529-3.315 113.894 9.994 150.109 13.32 36.215 26.586 117.698 139.916 93.417 94.691-20.294 143.764-72.881 150.593-160.603 4.841-62.36 15.808-53.14 16.495-108.897l8.796-26.392c10.139-84.536 1.612-111.81 59.948-99.124l14.185 1.247c42.931 1.95 99.134-6.91 132.12-22.24 71.022-32.958 113.147-87.995 43.114-73.536h.01" style="fill:#336791;fill-rule:nonzero"/><path d="M1092.95 928.792c-14.4-2.005-27.441-.151-34.039 4.846-3.707 2.81-4.857 6.066-5.169 8.307-.827 5.937 3.332 12.503 5.889 15.888 7.232 9.586 17.796 16.173 28.252 17.624 1.515.215 3.025.312 4.524.312 17.436 0 33.292-13.578 34.689-23.599 1.746-12.552-16.474-20.918-34.146-23.373m477.047.392c-1.375-9.838-18.881-12.643-35.495-10.332-16.592 2.31-32.679 9.8-31.336 19.66 1.075 7.667 14.922 20.756 31.31 20.756 1.386 0 2.783-.091 4.191-.29 10.939-1.515 18.967-8.462 22.782-12.465 5.803-6.104 9.166-12.907 8.548-17.329" style="fill:#fff;fill-rule:nonzero"/><path d="M1843.71 1350.58c-6.093-18.425-25.705-24.351-58.288-17.624-96.743 19.966-131.389 6.136-142.764-2.241 75.197-114.555 137.058-253.031 170.43-382.228 15.808-61.199 24.54-118.036 25.254-164.363.79-50.846-7.871-88.211-25.732-111.036-72.01-92.015-177.7-141.372-305.634-142.726-87.952-.989-162.263 21.519-176.668 27.849-30.337-7.544-63.408-12.176-99.414-12.767-66.024-1.069-123.098 14.739-170.349 46.961-20.525-7.64-73.569-25.85-138.439-36.301-112.147-18.053-201.266-4.373-264.862 40.68-75.885 53.764-110.918 149.867-104.131 285.636 2.283 45.676 28.311 186.194 69.383 320.764 54.064 177.12 112.835 277.388 174.669 298.015 7.238 2.413 15.582 4.1 24.786 4.1 22.557 0 50.212-10.166 78.985-44.758a2846.663 2846.663 0 0 1 108.865-123.184c24.308 13.045 51.013 20.331 78.324 21.062.054.715.124 1.429.188 2.139a632.723 632.723 0 0 0-13.809 17.059c-18.924 24.024-22.862 29.026-83.777 41.567-17.329 3.578-63.35 13.062-64.027 45.322-.73 35.248 54.403 50.051 60.685 51.62 21.89 5.48 42.979 8.183 63.091 8.183 48.911 0 91.955-16.076 126.354-47.181-1.058 125.655 4.18 249.474 19.268 287.198 12.358 30.885 42.545 106.361 137.896 106.356 13.992 0 29.391-1.628 46.332-5.26 99.516-21.332 142.732-65.316 159.448-162.285 8.946-51.824 24.297-175.572 31.519-241.951 15.238 4.755 34.855 6.931 56.063 6.925 44.231 0 95.271-9.397 127.278-24.254 35.957-16.699 100.843-57.675 89.076-93.277zm-236.987-448.549c-.328 19.596-3.025 37.387-5.884 55.956-3.078 19.972-6.259 40.621-7.06 65.687-.79 24.394 2.257 49.755 5.201 74.283 5.954 49.54 12.063 100.542-11.584 150.867a196.357 196.357 0 0 1-10.478-21.541c-2.939-7.125-9.322-18.57-18.161-34.41-34.383-61.662-114.899-206.059-73.682-264.981 12.278-17.538 43.437-35.57 121.648-25.861zm-94.803-331.989c114.63 2.531 205.307 45.414 269.505 127.451 49.239 62.924-4.981 349.242-161.946 596.25a949.048 949.048 0 0 0-4.761-6.002l-1.988-2.482c40.562-66.987 32.631-133.264 25.571-192.025-2.902-24.115-5.642-46.891-4.943-68.287.72-22.675 3.718-42.125 6.619-60.931 3.563-23.174 7.189-47.155 6.19-75.423.747-2.966 1.048-6.469.656-10.628-2.553-27.107-33.502-108.236-96.582-181.665-34.507-40.164-84.826-85.11-153.532-115.425 29.552-6.126 69.963-11.837 115.211-10.833zm-641.433 865.181c-31.702 38.117-53.592 30.809-60.792 28.413-46.907-15.647-101.337-114.792-149.324-272.009-41.524-136.037-65.789-272.831-67.712-311.19-6.061-121.315 23.346-205.861 87.41-251.296 104.26-73.934 275.673-29.681 344.551-7.237-.988.978-2.02 1.891-2.998 2.885-113.029 114.147-110.348 309.17-110.068 321.093-.011 4.599.376 11.111.902 20.068 1.945 32.803 5.567 93.852-4.105 162.988-8.984 64.247 10.822 127.129 54.328 172.526a195.05 195.05 0 0 0 14.061 13.261c-19.364 20.74-61.452 66.605-106.253 120.498zm120.782-161.156c-35.065-36.591-50.991-87.486-43.699-139.648 10.209-73.031 6.442-136.638 4.416-170.812-.284-4.782-.537-8.973-.682-12.277 16.512-14.642 93.03-55.639 147.6-43.136 24.899 5.701 40.072 22.659 46.38 51.824 32.648 151.001 4.32 213.936-18.44 264.514-4.691 10.418-9.124 20.267-12.906 30.455l-2.934 7.877c-7.426 19.912-14.336 38.428-18.618 56.009-37.279-.107-73.542-16.033-101.117-44.812v.006zm5.723 203.641c-10.886-2.719-20.676-7.442-26.42-11.359 4.798-2.257 13.336-5.33 28.144-8.382 71.662-14.749 82.73-25.162 106.899-55.848 5.539-7.039 11.821-15.013 20.52-24.727l.01-.011c12.955-14.508 18.882-12.047 29.628-7.587 8.71 3.6 17.194 14.518 20.633 26.533 1.628 5.674 3.455 16.441-2.526 24.823-50.486 70.689-124.054 69.781-176.888 56.558zm375.038 348.995c-87.668 18.784-118.708-25.947-139.164-77.083-13.201-33.012-19.692-181.88-15.087-346.282a19.805 19.805 0 0 0-.855-6.286 82.945 82.945 0 0 0-2.45-11.617c-6.845-23.921-23.529-43.93-43.544-52.227-7.952-3.293-22.545-9.338-40.083-4.851 3.74-15.411 10.225-32.814 17.258-51.658l2.95-7.925c3.321-8.936 7.49-18.193 11.896-27.994 23.819-52.915 56.44-125.393 21.036-289.128-13.261-61.329-57.546-91.278-124.678-84.32-40.245 4.164-77.067 20.402-95.432 29.713a308.042 308.042 0 0 0-10.934 5.814c5.126-61.791 24.49-177.27 96.931-250.334 45.612-45.994 106.356-68.711 180.365-67.486 145.827 2.385 239.34 77.222 292.115 139.588 45.478 53.737 70.103 107.871 79.931 137.068-73.908-7.517-124.173 7.071-149.652 43.501-55.435 79.243 30.325 233.043 71.543 306.961 7.56 13.546 14.083 25.254 16.135 30.23 13.422 32.528 30.799 54.247 43.485 70.097 3.89 4.858 7.662 9.57 10.531 13.686-22.384 6.453-62.591 21.363-58.927 95.894-2.955 37.397-23.969 212.485-34.646 274.346-14.094 81.725-44.167 112.164-128.724 130.298v-.005zm365.931-418.76c-22.889 10.623-61.194 18.591-97.581 20.305-40.191 1.881-60.652-4.502-65.466-8.43-2.257-46.445 15.029-51.297 33.324-56.434 2.875-.806 5.68-1.596 8.388-2.542a68.002 68.002 0 0 0 5.545 4.063c32.303 21.32 89.919 23.62 171.263 6.829l.892-.178c-10.972 10.258-29.746 24.024-56.365 36.387z" style="fill:#fff;fill-rule:nonzero"/></svg>